<svg width="45" height="33" viewBox="0 0 45 33" fill="none" xmlns="http://www.w3.org/2000/svg">
<path d="M3.70044 21.5088C3.92867 21.5088 41.0693 21.5088 41.5721 21.5088C40.0391 13.9172 34.0722 8.05306 26.7087 6.48135V3.10651H28.1817C28.8995 3.10651 29.4814 2.52459 29.4814 1.8068C29.4814 1.08901 28.8995 0.50708 28.1817 0.50708C27.0111 0.50708 18.2537 0.50708 17.0908 0.50708C16.373 0.50708 15.7911 1.08901 15.7911 1.8068C15.7911 2.52459 16.373 3.10651 17.0908 3.10651H18.5638V6.48135C11.1978 8.05358 5.23298 13.9197 3.70044 21.5088Z" fill="white"/>
<path d="M40.9191 24.0752H4.35374C2.2209 24.0752 0.45459 25.8113 0.45459 27.9743V28.3209C0.45459 30.4709 2.20375 32.2201 4.35374 32.2201H40.9191C43.0691 32.2201 44.8182 30.4709 44.8182 28.3209V27.9743C44.8182 25.8061 43.0471 24.0752 40.9191 24.0752Z" fill="white"/>
</svg>
