<svg width="40" height="38" viewBox="0 0 40 38" fill="none" xmlns="http://www.w3.org/2000/svg">
<path d="M30.7829 37.4546C30.4728 37.4558 30.1669 37.3827 29.8908 37.2413L19.9999 32.0631L10.109 37.2413C9.78783 37.4102 9.42571 37.4855 9.06382 37.4589C8.70193 37.4322 8.35478 37.3045 8.06184 37.0904C7.7689 36.8762 7.54191 36.5842 7.40668 36.2474C7.27146 35.9107 7.23342 35.5428 7.29689 35.1855L9.23628 24.2667L1.24598 16.5091C0.996683 16.2604 0.819838 15.9484 0.734419 15.6067C0.649001 15.2651 0.658234 14.9066 0.761129 14.5698C0.873536 14.2251 1.08031 13.9188 1.35798 13.6857C1.63565 13.4526 1.9731 13.302 2.33204 13.251L13.3866 11.6413L18.2545 1.69218C18.4133 1.36428 18.6612 1.08775 18.9699 0.894258C19.2786 0.700768 19.6356 0.598145 19.9999 0.598145C20.3642 0.598145 20.7212 0.700768 21.0299 0.894258C21.3386 1.08775 21.5866 1.36428 21.7454 1.69218L26.6714 11.6219L37.726 13.2316C38.0849 13.2826 38.4224 13.4332 38.7 13.6663C38.9777 13.8994 39.1845 14.2057 39.2969 14.5504C39.3998 14.8872 39.409 15.2457 39.3236 15.5873C39.2382 15.929 39.0613 16.241 38.812 16.4898L30.8217 24.2473L32.7611 35.1661C32.8304 35.5297 32.7941 35.9055 32.6567 36.2492C32.5192 36.5928 32.2863 36.89 31.9854 37.1055C31.6342 37.3516 31.2113 37.4744 30.7829 37.4546Z" fill="white"/>
</svg>
