<svg width="20" height="20" viewBox="0 0 20 20" fill="none" xmlns="http://www.w3.org/2000/svg">
<path d="M15.8337 4.1665H4.16699C3.50395 4.1665 2.86807 4.4299 2.39923 4.89874C1.93038 5.36758 1.66699 6.00346 1.66699 6.6665V13.3332C1.66699 13.9962 1.93038 14.6321 2.39923 15.1009C2.86807 15.5698 3.50395 15.8332 4.16699 15.8332H15.8337C16.4967 15.8332 17.1326 15.5698 17.6014 15.1009C18.0703 14.6321 18.3337 13.9962 18.3337 13.3332V6.6665C18.3337 6.00346 18.0703 5.36758 17.6014 4.89874C17.1326 4.4299 16.4967 4.1665 15.8337 4.1665ZM3.33366 6.6665C3.33366 6.44549 3.42146 6.23353 3.57774 6.07725C3.73402 5.92097 3.94598 5.83317 4.16699 5.83317H15.8337C16.0547 5.83317 16.2666 5.92097 16.4229 6.07725C16.5792 6.23353 16.667 6.44549 16.667 6.6665V7.49984H3.33366V6.6665ZM16.667 13.3332C16.667 13.5542 16.5792 13.7661 16.4229 13.9224C16.2666 14.0787 16.0547 14.1665 15.8337 14.1665H4.16699C3.94598 14.1665 3.73402 14.0787 3.57774 13.9224C3.42146 13.7661 3.33366 13.5542 3.33366 13.3332V9.1665H16.667V13.3332Z" fill="#FE724C"/>
<path d="M5.83333 12.5002H9.16667C9.38768 12.5002 9.59964 12.4124 9.75592 12.2561C9.9122 12.0998 10 11.8878 10 11.6668C10 11.4458 9.9122 11.2339 9.75592 11.0776C9.59964 10.9213 9.38768 10.8335 9.16667 10.8335H5.83333C5.61232 10.8335 5.40036 10.9213 5.24408 11.0776C5.0878 11.2339 5 11.4458 5 11.6668C5 11.8878 5.0878 12.0998 5.24408 12.2561C5.40036 12.4124 5.61232 12.5002 5.83333 12.5002Z" fill="#FE724C"/>
<path d="M12.5003 12.5002H14.167C14.388 12.5002 14.6 12.4124 14.7562 12.2561C14.9125 12.0998 15.0003 11.8878 15.0003 11.6668C15.0003 11.4458 14.9125 11.2339 14.7562 11.0776C14.6 10.9213 14.388 10.8335 14.167 10.8335H12.5003C12.2793 10.8335 12.0674 10.9213 11.9111 11.0776C11.7548 11.2339 11.667 11.4458 11.667 11.6668C11.667 11.8878 11.7548 12.0998 11.9111 12.2561C12.0674 12.4124 12.2793 12.5002 12.5003 12.5002Z" fill="#FE724C"/>
</svg>
