<svg width="20" height="20" viewBox="0 0 20 20" fill="none" xmlns="http://www.w3.org/2000/svg">
<path d="M14.5003 18.3333C11.0981 18.3289 7.83642 16.9754 5.43066 14.5696C3.0249 12.1638 1.6714 8.90219 1.66699 5.49993C1.66699 4.48327 2.07086 3.50825 2.78975 2.78936C3.50864 2.07047 4.48366 1.6666 5.50033 1.6666C5.71561 1.66496 5.93053 1.6845 6.14199 1.72493C6.34642 1.75518 6.54738 1.80542 6.74199 1.87493C6.87887 1.92296 7.00083 2.00588 7.09583 2.11549C7.19083 2.22511 7.25558 2.35762 7.28366 2.49993L8.42533 7.49993C8.4561 7.63565 8.45239 7.77692 8.41455 7.91084C8.3767 8.04475 8.30592 8.16706 8.20866 8.2666C8.10033 8.38327 8.09199 8.3916 7.06699 8.92493C7.88782 10.7256 9.32799 12.1717 11.1253 12.9999C11.667 11.9666 11.6753 11.9583 11.792 11.8499C11.8915 11.7527 12.0138 11.6819 12.1478 11.644C12.2817 11.6062 12.4229 11.6025 12.5587 11.6333L17.5587 12.7749C17.6964 12.8069 17.8238 12.8734 17.9287 12.9681C18.0337 13.0629 18.1128 13.1828 18.1587 13.3166C18.229 13.5144 18.282 13.7179 18.317 13.9249C18.3505 14.1344 18.3673 14.3462 18.367 14.5583C18.3516 15.5706 17.9364 16.5357 17.212 17.243C16.4875 17.9502 15.5127 18.3422 14.5003 18.3333ZM5.50033 3.33327C4.92637 3.33546 4.37654 3.56444 3.97069 3.97029C3.56483 4.37615 3.33585 4.92597 3.33366 5.49993C3.33587 8.46084 4.51306 11.2998 6.60674 13.3935C8.70042 15.4872 11.5394 16.6644 14.5003 16.6666C15.0743 16.6644 15.6241 16.4354 16.03 16.0296C16.4358 15.6237 16.6648 15.0739 16.667 14.4999V14.2249L12.8003 13.3333L12.5587 13.7916C12.1837 14.5166 11.9087 15.0416 11.2087 14.7583C9.82773 14.264 8.57424 13.4683 7.53927 12.429C6.5043 11.3897 5.71385 10.1329 5.22533 8.74993C4.92533 8.09993 5.49199 7.79993 6.20866 7.42493L6.66699 7.19993L5.77533 3.33327H5.50033Z" fill="#FE724C"/>
</svg>
