<svg width="20" height="20" viewBox="0 0 20 20" fill="none" xmlns="http://www.w3.org/2000/svg">
<path d="M16.147 14.8148C16.0014 14.8164 15.8589 14.7724 15.7396 14.6888L10.2211 11.037L4.70257 14.6888C4.56656 14.7765 4.40559 14.8172 4.24425 14.8047C4.08292 14.7923 3.93011 14.7273 3.80917 14.6198C3.68823 14.5123 3.60581 14.3682 3.57453 14.2094C3.54324 14.0507 3.5648 13.886 3.6359 13.7407L9.56183 1.88883C9.62399 1.7675 9.71843 1.66567 9.83475 1.59457C9.95107 1.52346 10.0848 1.48584 10.2211 1.48584C10.3574 1.48584 10.4911 1.52346 10.6074 1.59457C10.7237 1.66567 10.8182 1.7675 10.8803 1.88883L16.8063 13.7407C16.8801 13.8868 16.9035 14.0533 16.8726 14.2142C16.8418 14.375 16.7586 14.5211 16.6359 14.6296C16.5009 14.7487 16.3271 14.8145 16.147 14.8148ZM10.2211 9.40735C10.3663 9.40848 10.508 9.45227 10.6285 9.53328L14.2433 11.9259L10.2211 3.88142L6.19887 11.9259L9.81368 9.53328C9.93421 9.45227 10.0759 9.40848 10.2211 9.40735Z" fill="#FE724C"/>
</svg>
