<svg width="35" height="35" viewBox="0 0 35 35" fill="none" xmlns="http://www.w3.org/2000/svg">
<g clip-path="url(#clip0)">
<path d="M34.7542 3.29184C31.7117 0.24936 25.9929 0.249359 20.5687 3.03861C20.3723 5.69718 21.369 8.54181 23.53 10.7028C25.2273 12.3994 27.3462 13.3746 29.4665 13.6249C33.5936 8.64369 35.7641 4.30108 34.7542 3.29184ZM29.0213 5.21213C28.554 5.67946 27.7973 5.67946 27.3307 5.2136C26.8626 4.74627 26.8626 3.98879 27.3307 3.52145C27.7973 3.05411 28.554 3.05411 29.0221 3.52145C29.4879 3.98879 29.4879 4.74627 29.0213 5.21213Z" fill="white"/>
<path d="M18.602 4.18311C18.2018 4.44446 17.8054 4.72132 17.4133 5.01368L16.4831 4.52346C15.6717 4.09894 14.6743 4.24586 14.0261 4.89334L7.48337 11.436C7.0116 11.9078 6.79823 12.5782 6.89864 13.2375C6.99979 13.8953 7.40954 14.4689 7.99943 14.7783L9.48339 15.5557C7.99648 19.0227 7.18953 22.4195 6.96952 24.5709L0.509502 26.7932C0.217878 26.8928 0.017064 27.1586 0.000821725 27.4657C-0.0154206 27.7736 0.155124 28.0608 0.433458 28.1907L3.25076 29.5174C3.80226 29.7773 4.2445 30.2203 4.50438 30.7711L5.83108 33.5876C5.96176 33.8652 6.24895 34.0365 6.55534 34.0203C6.8632 34.004 7.12899 33.8017 7.22939 33.5123L9.45385 27.042C12.4867 26.5421 17.7478 24.2239 22.317 20.7326L22.8287 22.3125C22.921 22.5982 23.1528 22.8123 23.4451 22.8825C23.7375 22.9533 24.0424 22.864 24.2558 22.6521L24.8029 22.1043C25.2237 21.6827 25.4828 21.1246 25.5242 20.5295L25.7176 17.7521C26.5157 16.9481 27.2724 16.1434 27.9871 15.3453C25.8793 14.8565 23.8372 13.7661 22.1517 12.0806C19.9198 9.84799 18.726 6.99081 18.602 4.18311Z" fill="white"/>
</g>
<defs>
<clipPath id="clip0">
<rect width="35" height="35" fill="white"/>
</clipPath>
</defs>
</svg>
