<svg width="20" height="20" viewBox="0 0 20 20" fill="none" xmlns="http://www.w3.org/2000/svg">
<path d="M10.0001 1.6665C8.35191 1.6665 6.74074 2.15525 5.37033 3.07092C3.99992 3.9866 2.93182 5.28809 2.30109 6.81081C1.67036 8.33353 1.50533 10.0091 1.82687 11.6256C2.14842 13.2421 2.94209 14.727 4.10753 15.8924C5.27297 17.0578 6.75782 17.8515 8.37433 18.173C9.99084 18.4946 11.6664 18.3296 13.1891 17.6988C14.7118 17.0681 16.0133 16 16.929 14.6296C17.8447 13.2592 18.3334 11.648 18.3334 9.99984C18.3334 8.90549 18.1179 7.82186 17.6991 6.81081C17.2803 5.79976 16.6665 4.8811 15.8926 4.10728C15.1188 3.33346 14.2002 2.71963 13.1891 2.30084C12.1781 1.88205 11.0944 1.6665 10.0001 1.6665ZM10.0001 16.6665C8.68154 16.6665 7.39261 16.2755 6.29628 15.543C5.19996 14.8104 4.34547 13.7692 3.84089 12.5511C3.3363 11.3329 3.20428 9.99244 3.46152 8.69924C3.71875 7.40603 4.35369 6.21814 5.28604 5.28579C6.21839 4.35344 7.40628 3.7185 8.69948 3.46127C9.99269 3.20403 11.3331 3.33606 12.5513 3.84064C13.7695 4.34522 14.8107 5.19971 15.5432 6.29604C16.2758 7.39236 16.6668 8.6813 16.6668 9.99984C16.6668 11.7679 15.9644 13.4636 14.7141 14.7139C13.4639 15.9641 11.7682 16.6665 10.0001 16.6665Z" fill="#FE724C"/>
<path d="M12.5001 9.1665H7.50008C7.27907 9.1665 7.06711 9.2543 6.91083 9.41058C6.75455 9.56686 6.66675 9.77882 6.66675 9.99984C6.66675 10.2209 6.75455 10.4328 6.91083 10.5891C7.06711 10.7454 7.27907 10.8332 7.50008 10.8332H12.5001C12.7211 10.8332 12.9331 10.7454 13.0893 10.5891C13.2456 10.4328 13.3334 10.2209 13.3334 9.99984C13.3334 9.77882 13.2456 9.56686 13.0893 9.41058C12.9331 9.2543 12.7211 9.1665 12.5001 9.1665Z" fill="#FE724C"/>
</svg>
