<svg width="18" height="19" viewBox="0 0 18 19" fill="none" xmlns="http://www.w3.org/2000/svg">
<path d="M17.12 3.89716L14.29 0.924393C13.7279 0.333233 12.9654 0.000735531 12.17 0H5.83C5.03462 0.000735531 4.27207 0.333233 3.71 0.924393L0.88 3.89716C0.31723 4.48758 0.000700208 5.2886 0 6.1241V15.7567C0 16.5925 0.316071 17.394 0.87868 17.985C1.44129 18.576 2.20435 18.908 3 18.908H15C15.7956 18.908 16.5587 18.576 17.1213 17.985C17.6839 17.394 18 16.5925 18 15.7567V6.1241C17.9993 5.2886 17.6828 4.48758 17.12 3.89716ZM9 13.6558C7.93913 13.6558 6.92172 13.2131 6.17157 12.4251C5.42143 11.6371 5 10.5684 5 9.45402C5 9.17542 5.10536 8.90824 5.29289 8.71124C5.48043 8.51425 5.73478 8.40357 6 8.40357C6.26522 8.40357 6.51957 8.51425 6.70711 8.71124C6.89464 8.90824 7 9.17542 7 9.45402C7 10.0112 7.21071 10.5456 7.58579 10.9396C7.96086 11.3336 8.46957 11.5549 9 11.5549C9.53043 11.5549 10.0391 11.3336 10.4142 10.9396C10.7893 10.5456 11 10.0112 11 9.45402C11 9.17542 11.1054 8.90824 11.2929 8.71124C11.4804 8.51425 11.7348 8.40357 12 8.40357C12.2652 8.40357 12.5196 8.51425 12.7071 8.71124C12.8946 8.90824 13 9.17542 13 9.45402C13 10.5684 12.5786 11.6371 11.8284 12.4251C11.0783 13.2131 10.0609 13.6558 9 13.6558ZM3.41 4.20179L5.12 2.40552C5.31163 2.21357 5.56523 2.10476 5.83 2.10089H12.17C12.4348 2.10476 12.6884 2.21357 12.88 2.40552L14.59 4.20179H3.41Z" fill="white"/>
</svg>
