<svg width="51" height="26" viewBox="0 0 51 26" fill="none" xmlns="http://www.w3.org/2000/svg">
<path d="M49.0248 0.45459C48.0781 0.45459 47.3088 1.2208 47.2015 2.17908C45.9624 13.2421 36.7439 21.7562 25.6369 21.7437C14.5447 21.7188 5.34725 13.2226 4.07736 2.1764C3.96728 1.21881 3.19744 0.45459 2.25117 0.45459C1.25188 0.45459 0.44647 1.3031 0.555281 2.31519C1.94431 15.2351 12.6866 25.193 25.6369 25.1819C38.5847 25.1848 49.3227 15.2298 50.7173 2.31247C50.8264 1.30205 50.0225 0.45459 49.0248 0.45459Z" fill="white"/>
<path d="M30.2356 5.46937C28.8957 4.12697 26.6311 5.09412 26.6311 7.00876V17.4671C26.6311 18.7018 27.6491 19.696 28.8448 19.4953C31.9472 18.9745 34.8826 17.7021 37.4025 15.7858C38.3672 15.0522 38.3781 13.6269 37.5197 12.767L30.2356 5.46937Z" fill="white"/>
<path d="M8.14164 0.45459C6.93759 0.45459 5.96375 1.47912 6.14415 2.69205C6.59587 5.72926 7.71457 8.53407 9.42647 11.0206C10.1254 12.0358 11.5428 12.0828 12.4106 11.2133L19.4578 4.15287C20.8099 2.79817 19.8685 0.45459 17.9721 0.45459H8.14164Z" fill="white"/>
<path d="M13.764 12.7578C12.9074 13.6161 12.9162 15.038 13.877 15.7727C16.3923 17.6961 19.3267 18.9733 22.4293 19.4952C23.6248 19.6963 24.6426 18.7021 24.6426 17.4676V7.00906C24.6426 5.09438 22.3779 4.12724 21.038 5.46973L13.764 12.7578Z" fill="white"/>
<path d="M33.3018 0.45459C31.4054 0.45459 30.464 2.79817 31.8161 4.15288L38.8828 11.2329C39.7487 12.1004 41.162 12.0555 41.8567 11.0406C43.5626 8.54872 44.6835 5.68943 45.1318 2.68551C45.3124 1.47514 44.3401 0.45459 43.1385 0.45459H33.3018Z" fill="white"/>
</svg>
