<svg width="19" height="19" viewBox="0 0 19 19" fill="none" xmlns="http://www.w3.org/2000/svg">
<path d="M11.5564 9.50011L17.8272 3.24386C18.1018 2.96925 18.2561 2.5968 18.2561 2.20844C18.2561 1.82008 18.1018 1.44763 17.8272 1.17302C17.5526 0.898415 17.1802 0.744141 16.7918 0.744141C16.4035 0.744141 16.031 0.898415 15.7564 1.17302L9.50016 7.44386L3.24391 1.17302C2.9693 0.898415 2.59685 0.744141 2.20849 0.744141C1.82013 0.744141 1.44768 0.898415 1.17307 1.17302C0.898462 1.44763 0.744188 1.82008 0.744188 2.20844C0.744188 2.5968 0.898462 2.96925 1.17307 3.24386L7.44391 9.50011L1.17307 15.7564C1.03638 15.8919 0.927893 16.0532 0.853855 16.2309C0.779818 16.4086 0.741699 16.5993 0.741699 16.7918C0.741699 16.9843 0.779818 17.1749 0.853855 17.3526C0.927893 17.5303 1.03638 17.6916 1.17307 17.8272C1.30864 17.9639 1.46994 18.0724 1.64765 18.1464C1.82536 18.2204 2.01597 18.2586 2.20849 18.2586C2.40101 18.2586 2.59162 18.2204 2.76933 18.1464C2.94704 18.0724 3.10833 17.9639 3.24391 17.8272L9.50016 11.5564L15.7564 17.8272C15.892 17.9639 16.0533 18.0724 16.231 18.1464C16.4087 18.2204 16.5993 18.2586 16.7918 18.2586C16.9843 18.2586 17.175 18.2204 17.3527 18.1464C17.5304 18.0724 17.6917 17.9639 17.8272 17.8272C17.9639 17.6916 18.0724 17.5303 18.1465 17.3526C18.2205 17.1749 18.2586 16.9843 18.2586 16.7918C18.2586 16.5993 18.2205 16.4086 18.1465 16.2309C18.0724 16.0532 17.9639 15.8919 17.8272 15.7564L11.5564 9.50011Z" fill="#333333" fill-opacity="0.5"/>
</svg>
