<svg width="35" height="35" viewBox="0 0 35 35" fill="none" xmlns="http://www.w3.org/2000/svg">
<g clip-path="url(#clip0)">
<path d="M12.0095 14.459C13.2712 13.6178 14.8906 13.5697 16.1928 14.3139L18.9301 8.81812H6.56265C5.73735 8.81812 5.25029 9.74657 5.71848 10.4256L9.60544 16.0618C13.6567 13.3608 10.254 15.6291 12.0095 14.459Z" fill="white"/>
<path d="M25.1562 32.9488H18.5254V26.022L24.2302 17.7501C21.1795 15.7163 22.0813 16.3175 21.8532 16.1654C21.2019 15.731 20.3605 15.731 19.7096 16.1652C18.9981 16.6395 18.1387 16.8855 17.2331 16.8252L16.1247 19.0505C15.9454 19.4106 15.5828 19.6189 15.2061 19.6189C14.4525 19.6189 13.9477 18.8217 14.2891 18.1362L15.2754 16.1559C14.6356 15.7379 13.8002 15.7299 13.147 16.1653C12.8834 16.341 13.936 15.6393 10.7699 17.7501L16.4747 26.022V32.9488H9.84386C9.27758 32.9488 8.81848 33.4079 8.81848 33.9742C8.81848 34.5404 9.27758 34.9995 9.84386 34.9995H25.1563C25.7225 34.9995 26.1816 34.5404 26.1816 33.9742C26.1816 33.4079 25.7225 32.9488 25.1562 32.9488Z" fill="white"/>
<path d="M28.4374 8.81827H23.5141L27.1678 1.48254C27.4202 0.975595 27.214 0.360024 26.7071 0.107574C26.2001 -0.145012 25.5845 0.0613639 25.3321 0.568245C21.5552 8.1517 22.125 7.00334 18.3479 14.5871C18.4248 14.5494 18.4998 14.5073 18.5718 14.4592C19.914 13.5641 21.6486 13.5642 22.9908 14.4593C24.7936 15.6609 21.3525 13.3671 25.3946 16.0619L29.2816 10.4258C29.75 9.74631 29.2622 8.81827 28.4374 8.81827Z" fill="white"/>
</g>
<defs>
<clipPath id="clip0">
<rect width="35" height="35" fill="white"/>
</clipPath>
</defs>
</svg>
