<svg width="21" height="35" viewBox="0 0 21 35" fill="none" xmlns="http://www.w3.org/2000/svg">
<path d="M20.7539 14.3555C20.7539 13.2169 20.2843 12.1485 19.4702 11.3764C19.6404 10.6855 19.7285 9.95449 19.7285 9.22852C19.7285 4.13964 15.5889 0 10.5 0C5.41112 0 1.27148 4.13964 1.27148 9.22852C1.27148 9.93945 1.35659 10.6675 1.51983 11.3694C0.711758 12.1375 0.246094 13.2079 0.246094 14.3555C0.246094 16.6175 2.08558 18.457 4.34766 18.457C5.57129 18.457 6.67181 17.9183 7.42383 17.0652C8.17585 17.9183 9.27637 18.457 10.5 18.457C11.7236 18.457 12.8242 17.9183 13.5762 17.0652C14.3282 17.9183 15.4287 18.457 16.6523 18.457C19.0373 18.457 20.7539 16.4853 20.7539 14.3555Z" fill="white"/>
<path d="M6.82422 26.957L9.53966 34.3343C9.68984 34.7348 10.0724 35.0002 10.5 35.0002C10.9276 35.0002 11.3101 34.7348 11.4603 34.3352L16.597 20.5006C16.0137 20.4952 15.4453 20.3935 14.8961 20.2307L6.82422 26.957Z" fill="white"/>
<path d="M10.4999 20.5078C9.40939 20.5078 8.34996 20.2174 7.42369 19.6816C6.51349 20.2081 5.47334 20.4905 4.40283 20.5004L6.06143 24.9229L11.5222 20.3722C11.1834 20.43 10.8484 20.5078 10.4999 20.5078Z" fill="white"/>
</svg>
