<svg width="41" height="20" viewBox="0 0 41 20" fill="none" xmlns="http://www.w3.org/2000/svg">
<path d="M39.609 0C38.8356 0 38.2071 0.619731 38.1194 1.39481C37.107 10.3428 29.5752 17.2293 20.5005 17.2191C11.4378 17.199 3.92324 10.3271 2.88571 1.39264C2.79576 0.618123 2.16678 0 1.39365 0C0.577208 0 -0.0808369 0.686292 0.00806437 1.50489C1.14294 11.9548 9.9197 20.009 20.5005 20C31.0792 20.0023 39.8525 11.9505 40.9919 1.5027C41.081 0.685449 40.4242 0 39.609 0Z" fill="white"/>
<path d="M24.2578 4.05608C23.163 2.97031 21.3127 3.75256 21.3127 5.30117V13.7601C21.3127 14.7588 22.1445 15.5629 23.1214 15.4006C25.6561 14.9793 28.0545 13.9502 30.1133 12.4003C30.9015 11.8069 30.9104 10.6541 30.2091 9.95857L24.2578 4.05608Z" fill="white"/>
<path d="M6.20634 0C5.22259 0 4.42694 0.828663 4.57433 1.80971C4.9434 4.26628 5.85741 6.53487 7.25608 8.54601C7.82716 9.36715 8.98516 9.40519 9.69421 8.70193L15.452 2.99126C16.5567 1.89554 15.7875 0 14.2381 0H6.20634Z" fill="white"/>
<path d="M10.7999 9.95115C10.1001 10.6453 10.1073 11.7954 10.8923 12.3897C12.9473 13.9454 15.3449 14.9784 17.8798 15.4005C18.8565 15.5632 19.6881 14.759 19.6881 13.7606V5.30141C19.6881 3.75277 17.8377 2.97052 16.743 4.05636L10.7999 9.95115Z" fill="white"/>
<path d="M26.7629 0C25.2135 0 24.4443 1.89554 25.5491 2.99126L31.3228 8.71774C32.0302 9.41942 33.1849 9.38306 33.7525 8.56222C35.1463 6.54673 36.0621 4.23406 36.4284 1.80442C36.576 0.825443 35.7815 0 34.7998 0H26.7629Z" fill="white"/>
</svg>
