<svg width="14" height="14" viewBox="0 0 14 14" fill="none" xmlns="http://www.w3.org/2000/svg">
<path d="M13.1669 3.11655L10.8836 0.833215C10.5856 0.553295 10.1951 0.392681 9.78636 0.381925C9.37764 0.371169 8.97923 0.511023 8.66691 0.774882L1.16691 8.27488C0.897552 8.54652 0.729834 8.90255 0.691914 9.28321L0.333581 12.7582C0.322355 12.8803 0.338193 13.0033 0.379965 13.1185C0.421737 13.2338 0.488416 13.3384 0.575247 13.4249C0.653114 13.5021 0.745461 13.5632 0.846992 13.6047C0.948523 13.6462 1.05724 13.6672 1.16691 13.6665H1.24191L4.71691 13.3499C5.09758 13.312 5.45361 13.1442 5.72525 12.8749L13.2252 5.37488C13.5163 5.06735 13.6737 4.65697 13.6627 4.23366C13.6518 3.81035 13.4735 3.40864 13.1669 3.11655ZM4.56691 11.6832L2.06691 11.9165L2.29191 9.41655L7.00025 4.76655L9.25025 7.01655L4.56691 11.6832ZM10.3336 5.89988L8.10025 3.66655L9.72525 1.99988L12.0002 4.27488L10.3336 5.89988Z" fill="#FE724C"/>
</svg>
