<svg width="36" height="36" viewBox="0 0 36 36" fill="none" xmlns="http://www.w3.org/2000/svg">
<path d="M35.5 18C35.5 14.5388 34.4736 11.1554 32.5507 8.27752C30.6278 5.39966 27.8947 3.15664 24.697 1.8321C21.4993 0.50757 17.9806 0.161013 14.5859 0.836254C11.1913 1.5115 8.07305 3.17821 5.62563 5.62563C3.17821 8.07305 1.5115 11.1913 0.836254 14.5859C0.161013 17.9806 0.50757 21.4993 1.8321 24.697C3.15664 27.8947 5.39966 30.6278 8.27752 32.5507C11.1554 34.4736 14.5388 35.5 18 35.5C20.2981 35.5 22.5738 35.0473 24.697 34.1679C26.8202 33.2884 28.7493 31.9994 30.3744 30.3744C33.6563 27.0925 35.5 22.6413 35.5 18ZM14.745 24.4575L9.74 19.2075C9.66593 19.1316 9.6066 19.0426 9.565 18.945C9.49069 18.8627 9.43145 18.7679 9.39 18.665C9.29741 18.4555 9.24959 18.229 9.24959 18C9.24959 17.771 9.29741 17.5445 9.39 17.335C9.47329 17.1202 9.59818 16.9239 9.7575 16.7575L15.0075 11.5075C15.337 11.178 15.784 10.9928 16.25 10.9928C16.716 10.9928 17.163 11.178 17.4925 11.5075C17.822 11.837 18.0072 12.284 18.0072 12.75C18.0072 13.216 17.822 13.663 17.4925 13.9925L15.2175 16.25H25C25.4641 16.25 25.9092 16.4344 26.2374 16.7626C26.5656 17.0908 26.75 17.5359 26.75 18C26.75 18.4641 26.5656 18.9092 26.2374 19.2374C25.9092 19.5656 25.4641 19.75 25 19.75H15.095L17.2825 22.0425C17.6027 22.379 17.7762 22.8289 17.7647 23.2933C17.7532 23.7577 17.5577 24.1985 17.2212 24.5188C16.8848 24.839 16.4348 25.0125 15.9704 25.001C15.5061 24.9895 15.0652 24.794 14.745 24.4575Z" fill="#FE724C"/>
</svg>
