<svg width="36" height="36" viewBox="0 0 36 36" fill="none" xmlns="http://www.w3.org/2000/svg">
<path d="M0.5 18C0.5 21.4612 1.52636 24.8446 3.44928 27.7225C5.37221 30.6003 8.10533 32.8434 11.303 34.1679C14.5007 35.4924 18.0194 35.839 21.4141 35.1637C24.8087 34.4885 27.927 32.8218 30.3744 30.3744C32.8218 27.927 34.4885 24.8087 35.1637 21.4141C35.839 18.0194 35.4924 14.5007 34.1679 11.303C32.8434 8.10533 30.6003 5.37221 27.7225 3.44928C24.8446 1.52636 21.4612 0.5 18 0.5C15.7019 0.5 13.4262 0.952651 11.303 1.83211C9.17984 2.71157 7.25066 4.00061 5.62563 5.62563C2.34374 8.90752 0.5 13.3587 0.5 18ZM21.255 11.5425L26.26 16.7925C26.3341 16.8684 26.3934 16.9574 26.435 17.055C26.5093 17.1373 26.5686 17.2321 26.61 17.335C26.7026 17.5445 26.7504 17.771 26.7504 18C26.7504 18.229 26.7026 18.4555 26.61 18.665C26.5267 18.8798 26.4018 19.0761 26.2425 19.2425L20.9925 24.4925C20.663 24.822 20.216 25.0072 19.75 25.0072C19.284 25.0072 18.837 24.822 18.5075 24.4925C18.178 24.163 17.9928 23.716 17.9928 23.25C17.9928 22.784 18.178 22.337 18.5075 22.0075L20.7825 19.75H11C10.5359 19.75 10.0908 19.5656 9.76256 19.2374C9.43438 18.9092 9.25 18.4641 9.25 18C9.25 17.5359 9.43438 17.0908 9.76256 16.7626C10.0908 16.4344 10.5359 16.25 11 16.25H20.905L18.7175 13.9575C18.3973 13.621 18.2238 13.1711 18.2353 12.7067C18.2468 12.2423 18.4423 11.8015 18.7788 11.4812C19.1152 11.161 19.5652 10.9875 20.0296 10.999C20.4939 11.0105 20.9348 11.206 21.255 11.5425Z" fill="#FE724C"/>
</svg>
