<svg width="28" height="27" viewBox="0 0 28 27" fill="none" xmlns="http://www.w3.org/2000/svg">
<path d="M21.4133 25.9999C21.2 26.0008 20.9897 25.9505 20.7999 25.8533L13.9999 22.2933L7.19993 25.8533C6.97912 25.9694 6.73016 26.0212 6.48136 26.0029C6.23256 25.9845 5.9939 25.8968 5.7925 25.7495C5.5911 25.6023 5.43505 25.4015 5.34208 25.17C5.24911 24.9385 5.22296 24.6856 5.26659 24.4399L6.59993 16.9333L1.10659 11.5999C0.935204 11.4289 0.813623 11.2144 0.754898 10.9795C0.696173 10.7446 0.702521 10.4982 0.773261 10.2666C0.850541 10.0296 0.992696 9.81908 1.18359 9.65882C1.37449 9.49856 1.60649 9.39502 1.85326 9.35995L9.45326 8.25328L12.7999 1.41328C12.9091 1.18785 13.0796 0.997736 13.2918 0.864711C13.504 0.731686 13.7495 0.661133 13.9999 0.661133C14.2504 0.661133 14.4958 0.731686 14.708 0.864711C14.9203 0.997736 15.0907 1.18785 15.1999 1.41328L18.5866 8.23995L26.1866 9.34661C26.4334 9.38169 26.6654 9.48523 26.8563 9.64549C27.0472 9.80575 27.1893 10.0163 27.2666 10.2533C27.3373 10.4848 27.3437 10.7313 27.285 10.9662C27.2262 11.2011 27.1047 11.4156 26.9333 11.5866L21.4399 16.9199L22.7733 24.4266C22.8209 24.6766 22.7959 24.935 22.7014 25.1712C22.6069 25.4075 22.4468 25.6118 22.2399 25.7599C21.9985 25.9291 21.7078 26.0135 21.4133 25.9999Z" fill="white"/>
</svg>
