<svg width="20" height="20" viewBox="0 0 20 20" fill="none" xmlns="http://www.w3.org/2000/svg">
<path d="M9.83333 9.66667C10.4926 9.66667 11.1371 9.47117 11.6852 9.1049C12.2334 8.73863 12.6606 8.21803 12.9129 7.60895C13.1652 6.99986 13.2312 6.32964 13.1026 5.68303C12.974 5.03643 12.6565 4.44249 12.1904 3.97631C11.7242 3.51014 11.1302 3.19267 10.4836 3.06405C9.83703 2.93543 9.16681 3.00144 8.55772 3.25374C7.94863 3.50603 7.42804 3.93327 7.06177 4.48143C6.6955 5.0296 6.5 5.67406 6.5 6.33333C6.5 7.21739 6.85119 8.06524 7.47631 8.69036C8.10143 9.31548 8.94928 9.66667 9.83333 9.66667ZM9.83333 4.66667C10.163 4.66667 10.4852 4.76442 10.7593 4.94755C11.0334 5.13069 11.247 5.39099 11.3731 5.69553C11.4993 6.00007 11.5323 6.33518 11.468 6.65849C11.4037 6.98179 11.2449 7.27876 11.0118 7.51185C10.7788 7.74493 10.4818 7.90367 10.1585 7.96798C9.83518 8.03229 9.50007 7.99928 9.19553 7.87313C8.89098 7.74699 8.63069 7.53337 8.44755 7.25928C8.26442 6.9852 8.16667 6.66297 8.16667 6.33333C8.16667 5.89131 8.34226 5.46738 8.65482 5.15482C8.96738 4.84226 9.39131 4.66667 9.83333 4.66667Z" fill="#F36437"/>
<path d="M9.83333 11.3325C8.28624 11.3325 6.80251 11.9471 5.70854 13.0411C4.61458 14.135 4 15.6188 4 17.1659C4 17.3869 4.0878 17.5988 4.24408 17.7551C4.40036 17.9114 4.61232 17.9992 4.83333 17.9992C5.05435 17.9992 5.26631 17.9114 5.42259 17.7551C5.57887 17.5988 5.66667 17.3869 5.66667 17.1659C5.66667 16.0608 6.10565 15.001 6.88705 14.2196C7.66846 13.4382 8.72826 12.9992 9.83333 12.9992C10.9384 12.9992 11.9982 13.4382 12.7796 14.2196C13.561 15.001 14 16.0608 14 17.1659C14 17.3869 14.0878 17.5988 14.2441 17.7551C14.4004 17.9114 14.6123 17.9992 14.8333 17.9992C15.0543 17.9992 15.2663 17.9114 15.4226 17.7551C15.5789 17.5988 15.6667 17.3869 15.6667 17.1659C15.6667 15.6188 15.0521 14.135 13.9581 13.0411C12.8642 11.9471 11.3804 11.3325 9.83333 11.3325Z" fill="#F36437"/>
</svg>
